<svg width="512" height="512" viewBox="0 0 512 512" fill="none" xmlns="http://www.w3.org/2000/svg">
<rect x="6" y="6" width="500" height="500" rx="250" fill="#55B95F"/>
<path d="M200.82 163.5C208.156 163.5 214.733 165.544 220.415 169.685L220.936 170.056C226.279 173.926 230.464 179.082 233.507 185.43C236.655 191.996 238.207 199.166 238.207 206.886C238.207 211.948 237.455 216.715 235.917 221.158L235.909 221.18L235.901 221.202C234.432 225.268 232.735 228.709 230.756 231.418C229.816 232.705 228.846 233.837 227.845 234.681C226.919 235.461 225.505 236.387 223.734 236.387C221.164 236.387 219.393 234.645 218.326 233.185L218.263 233.097L218.204 233.005C217.257 231.523 216.361 229.718 216.361 227.838C216.361 226.523 216.83 225.325 217.329 224.378C217.851 223.386 218.569 222.367 219.406 221.338C220.671 219.784 221.979 217.619 223.3 214.759L223.306 214.747L223.312 214.734C224.544 212.117 225.237 208.783 225.237 204.613C225.237 199.088 224.016 194.421 221.69 190.492L221.661 190.442L221.633 190.392C219.378 186.276 216.214 183.147 212.083 180.943L212.025 180.912L211.969 180.88C207.942 178.536 203.24 177.315 197.755 177.315C186.876 177.315 179.761 180.795 168.689 188.548L168.676 188.558L168.661 188.567C158.073 195.824 152.353 205.539 143.712 218.886C137.974 227.865 133.654 237.319 130.739 247.252C127.723 257.533 124.471 268.957 124.471 281.86C124.471 295.034 124.576 305.056 128.08 312.989C131.832 321.067 136.755 326.978 142.77 330.928C148.842 334.748 155.653 336.675 163.294 336.675C172.174 336.675 181.749 334.464 192.053 329.905C200.585 326.13 204.106 322.923 207.771 320.715C212.317 317.975 213.874 316.721 216.843 314.336C221.516 310.582 221.408 310.671 224.121 307.946C225.849 306.211 227.231 304.458 228.318 303.052C228.83 302.39 229.358 301.697 229.786 301.196C229.996 300.95 230.288 300.625 230.621 300.338C230.789 300.193 231.054 299.982 231.399 299.793C231.714 299.62 232.359 299.317 233.222 299.317L233.399 299.305C233.557 299.294 233.807 299.276 234.064 299.26C234.583 299.228 235.294 299.196 236.022 299.229C236.676 299.257 237.697 299.347 238.662 299.749C239.695 300.179 241.45 301.379 241.45 303.768C241.45 304.09 241.543 305.737 241.465 306.833C241.367 308.198 241.018 309.942 239.809 311.561C233.754 319.668 228.493 322.728 225.804 324.657C219.283 329.334 215.483 332.286 209.566 336.058L209.529 336.081C203.618 339.745 196.749 343.025 190.933 345.429L190.914 345.437L190.895 345.444C185.683 347.526 180.644 349.022 175.78 349.913C170.941 350.967 166.185 351.5 161.519 351.5C158.106 351.5 153.19 350.755 148.226 349.348C143.276 347.944 137.932 345.785 133.809 342.756V342.757C125.952 337.07 119.994 328.815 115.823 318.233L115.819 318.225L115.815 318.215C111.553 307.222 111.5 294.23 111.5 280.094C111.5 266.07 115.153 253.25 118.367 242.021L118.372 242.007L118.376 241.992C121.804 230.401 126.731 219.657 133.16 209.773L133.176 209.75C142.562 195.567 150.202 183.845 163.558 175.631L163.569 175.624C176.54 167.714 186.473 163.5 200.82 163.5Z" fill="white" stroke="white" stroke-width="7"/>
<path d="M319.609 165.5C321.401 165.5 323.108 166.005 324.588 167.083C326.03 168.134 327.059 169.586 327.793 171.19C329.22 174.312 329.777 178.565 329.777 183.582C329.777 194.44 326.635 213.547 320.543 240.598L320.541 240.607L320.539 240.616C317.496 253.796 314.986 264.776 313.005 273.57C332.722 237.36 352.836 209.913 373.399 191.397L373.405 191.393L373.411 191.387C376.785 188.377 380.315 185.457 383.999 182.629C385.943 181.09 387.763 179.849 389.44 178.979C391.081 178.127 392.868 177.479 394.658 177.479C396.008 177.479 397.343 177.833 398.525 178.637C399.682 179.423 400.494 180.503 401.057 181.65C402.135 183.849 402.5 186.707 402.5 189.832C402.5 193.011 402.167 196.752 401.531 201.023C400.885 205.368 399.814 210.115 398.337 215.255L398.338 215.256L384.075 266.02L384.076 266.021C382.735 270.871 381.239 276.237 379.591 282.121C378.048 287.993 376.556 293.866 375.116 299.738C373.78 305.436 372.652 310.605 371.731 315.245L371.726 315.271C370.85 319.519 370.44 322.622 370.405 324.694C371.343 323.898 372.499 322.64 373.863 320.807L373.88 320.785L373.897 320.763C376.963 316.777 380.276 311.645 383.834 305.331C384.392 304.217 385.089 302.962 385.914 301.576L385.962 301.496L386.014 301.419C386.574 300.583 387.224 299.766 387.988 299.124C388.732 298.499 389.896 297.783 391.402 297.783L391.773 297.795C392.644 297.849 393.532 298.098 394.353 298.615C395.278 299.198 395.922 299.998 396.356 300.818C397.17 302.356 397.383 304.214 397.383 305.971C397.383 306.933 397.196 307.89 396.928 308.792L396.883 308.94L396.826 309.085C396.504 309.896 395.903 310.982 395.185 312.188C393.841 314.445 392.497 316.702 391.153 318.959C389.79 321.248 388.523 323.288 387.353 325.075L387.32 325.124L387.287 325.172C384.506 329.124 381.545 332.656 378.4 335.758C375.237 339.153 371.602 341.5 367.522 341.5C365.892 341.5 364.302 341.108 362.88 340.215C361.47 339.329 360.421 338.075 359.663 336.646C358.202 333.893 357.665 330.21 357.665 326.021C357.665 320.788 358.762 312.946 360.836 302.674C362.924 292.327 366.099 279.313 370.348 263.65L370.35 263.642L386.631 204.271L386.641 204.237C387.419 201.505 387.984 199.402 388.354 197.896C388.192 198.024 388.023 198.156 387.851 198.294L387.802 198.333C381.698 203.038 374.917 209.401 367.456 217.468C360.032 225.495 353.11 234.213 346.69 243.624L346.685 243.632L346.68 243.64C341.446 251.223 336.785 258.449 332.695 265.316C328.593 272.205 324.591 279.356 320.69 286.769C316.777 294.205 312.448 302.687 307.701 312.218L307.69 312.24L307.679 312.263C306.335 314.867 305.416 316.668 304.913 317.682L304.854 317.802L304.784 317.917C303.547 319.995 301.482 320.929 299.297 320.929C298.323 320.929 297.304 320.707 296.358 320.146C295.417 319.588 294.738 318.807 294.269 317.973C293.39 316.41 293.16 314.517 293.16 312.741C293.16 309.188 293.602 304.65 294.441 299.189C295.281 293.727 296.329 288.181 297.586 282.553L309.061 230.996C311.843 218.361 313.895 207.931 315.224 199.69C316.561 191.395 317.194 185.373 317.194 181.499C317.194 181.132 317.183 180.808 317.162 180.525C317.088 180.584 317.009 180.645 316.928 180.712C315.775 181.667 314.274 183.21 312.408 185.438C308.692 189.878 303.858 196.642 297.887 205.805C293.768 212.202 289.91 218.338 286.31 224.211C282.722 230.064 279.446 235.737 276.481 241.23L276.473 241.246L276.465 241.262C274.537 244.748 273.511 247.132 272.55 249.485C271.574 251.874 270.617 254.358 268.89 257.803C264.156 267.242 260.64 276.057 257.487 283.294L257.488 283.295C255.832 287.133 252.771 291.806 249.603 296.366C246.325 301.084 242.936 305.678 240.162 309.85C239.039 311.538 237.21 313.639 235.478 315.387C234.596 316.276 233.687 317.128 232.843 317.834C232.072 318.479 231.116 319.207 230.183 319.631C228.292 320.489 226.524 319.89 225.512 319.343C224.464 318.776 223.597 317.956 222.955 317.213C222.293 316.447 221.708 315.576 221.282 314.723C221.069 314.295 220.866 313.815 220.722 313.31C220.59 312.848 220.438 312.134 220.526 311.324L220.659 310.103L221.528 309.232C225.189 305.563 227.465 302.826 229.783 299.922C232.118 296.996 234.554 293.825 238.413 289.473C246.239 280.649 251.901 266.57 256.683 254.108L256.74 253.959L256.811 253.815C261.051 245.203 264.414 236.605 269.192 228.057C273.824 219.772 277.931 211.4 283.178 203.294C290.864 191.173 297.606 181.928 303.396 175.672C306.291 172.543 309.036 170.064 311.628 168.346C314.182 166.652 316.881 165.5 319.609 165.5Z" fill="white" stroke="white" stroke-width="7"/>
</svg>
